<svg width="51" height="47" viewBox="0 0 51 47" fill="none" xmlns="http://www.w3.org/2000/svg">
<path d="M38.0508 32.9881H12.2022C12.0112 33.0006 11.8195 32.9767 11.639 32.9179C11.4585 32.8591 11.2931 32.7667 11.153 32.6465C11.013 32.5262 10.9013 32.3807 10.8249 32.2189C10.7485 32.0571 10.7091 31.8826 10.7091 31.7062C10.7091 31.5298 10.7485 31.3552 10.8249 31.1935C10.9013 31.0317 11.013 30.8861 11.153 30.7659C11.2931 30.6456 11.4585 30.5532 11.639 30.4944C11.8195 30.4357 12.0112 30.4118 12.2022 30.4242H15.3488V28.8637H12.2022C11.7848 28.8454 11.3677 28.9054 10.9762 29.04C10.5847 29.1745 10.2269 29.381 9.92451 29.6467C9.6221 29.9125 9.38137 30.232 9.21688 30.586C9.0524 30.94 8.96759 31.3211 8.96759 31.7062C8.96759 32.0913 9.0524 32.4723 9.21688 32.8263C9.38137 33.1803 9.6221 33.4999 9.92451 33.7656C10.2269 34.0314 10.5847 34.2378 10.9762 34.3724C11.3677 34.507 11.7848 34.567 12.2022 34.5487H38.0508C38.2336 34.5395 38.4164 34.5648 38.5882 34.6229C38.76 34.681 38.9172 34.7708 39.0501 34.8868C39.1829 35.0028 39.2888 35.1425 39.3611 35.2974C39.4334 35.4524 39.4707 35.6193 39.4707 35.7879C39.4707 35.9566 39.4334 36.1235 39.3611 36.2784C39.2888 36.4334 39.1829 36.5731 39.0501 36.6891C38.9172 36.805 38.76 36.8948 38.5882 36.953C38.4164 37.0111 38.2336 37.0364 38.0508 37.0272H34.944V38.5877H38.0508C38.459 38.6014 38.866 38.539 39.2475 38.4045C39.6291 38.2699 39.9772 38.0659 40.2712 37.8045C40.5653 37.5432 40.7991 37.2299 40.9589 36.8835C41.1186 36.537 41.2009 36.1644 41.2009 35.7879C41.2009 35.4115 41.1186 35.0389 40.9589 34.6924C40.7991 34.3459 40.5653 34.0327 40.2712 33.7713C39.9772 33.51 39.6291 33.306 39.2475 33.1714C38.866 33.0368 38.459 32.9745 38.0508 32.9881Z" fill="white"/>
<path d="M32.2436 37.03H26.4822V38.5905H32.2436V37.03Z" fill="white"/>
<path d="M16.2453 25.1524H19.0962C19.1958 24.5759 19.3956 24.0179 19.6878 23.5H16.2453C13.3218 23.5 10.9043 21.352 10.8565 18.711C10.8442 18.0641 10.9718 17.4214 11.232 16.8204C11.4921 16.2195 11.8795 15.6723 12.3716 15.2109C12.8637 14.7494 13.4507 14.3829 14.0981 14.1328C14.7456 13.8826 15.4407 13.7538 16.1427 13.7539V12.9278L16.1527 13.7539H16.1597C16.3353 13.7534 16.5105 13.7368 16.6826 13.7044C17.3165 14.3267 17.6738 15.1457 17.6837 15.9993L19.7097 15.947C19.6914 14.7338 19.2132 13.5648 18.3581 12.6423C18.4822 12.4592 18.5784 12.2612 18.6439 12.0539C19.0621 10.7317 19.9345 9.57016 21.1299 8.74374C22.3254 7.91731 23.7795 7.47057 25.2739 7.47057C26.7684 7.47057 28.2225 7.91731 29.4179 8.74374C30.6134 9.57016 31.4857 10.7317 31.9039 12.0539C32.0586 12.5492 32.385 12.9843 32.8332 13.2926C33.2814 13.6009 33.8269 13.7655 34.3862 13.7613H34.4071C35.1092 13.7612 35.8042 13.89 36.4517 14.1401C37.0992 14.3902 37.6861 14.7567 38.1782 15.2182C38.6703 15.6797 39.0577 16.2268 39.3179 16.8278C39.578 17.4287 39.7057 18.0714 39.6934 18.7183C39.6825 19.3982 39.5126 20.0679 39.1953 20.6818C39.7791 20.8144 40.3374 21.0287 40.8508 21.3171C41.2563 20.5108 41.4741 19.6353 41.4903 18.7468C41.5063 17.8807 41.3351 17.0203 40.9865 16.2159C40.6379 15.4114 40.119 14.679 39.46 14.0613C38.8011 13.4436 38.0153 12.953 37.1484 12.6181C36.2816 12.2832 35.351 12.1108 34.4111 12.1108H34.3922C34.2213 12.1132 34.0543 12.064 33.9167 11.9706C33.7791 11.8773 33.6785 11.745 33.6302 11.594C33.1033 9.92832 32.0044 8.46513 30.4984 7.42405C28.9923 6.38297 27.1605 5.82019 25.2779 5.82019C23.3953 5.82019 21.5635 6.38297 20.0575 7.42405C18.5515 8.46513 17.4525 9.92832 16.9257 11.594C16.877 11.7457 16.7756 11.8785 16.637 11.9718C16.4984 12.0652 16.3303 12.114 16.1587 12.1108H16.1447C15.2054 12.1107 14.2754 12.2828 13.409 12.6172C12.5426 12.9516 11.757 13.4415 11.098 14.0584C10.4391 14.6753 9.91991 15.4069 9.57079 16.2106C9.22167 17.0142 9.04956 17.8739 9.06449 18.7394C9.12725 22.2764 12.3516 25.1524 16.2453 25.1524Z" fill="white"/>
<path d="M36.4999 21.0261C36.1154 20.028 35.3974 19.1681 34.4491 18.5697C33.5009 17.9714 32.3712 17.6656 31.2224 17.6962C30.0737 17.7268 28.965 18.0923 28.0559 18.7401C27.1467 19.3879 26.4838 20.2846 26.1625 21.3015C26.0907 21.5266 25.9411 21.724 25.7365 21.8637C25.532 22.0033 25.2835 22.0776 25.0289 22.0753H25.0189C24.447 22.0754 23.8808 22.1804 23.3533 22.3843C22.8259 22.5882 22.3478 22.8868 21.9469 23.2628C21.5461 23.6388 21.2305 24.0846 21.0186 24.5742C20.8067 25.0638 20.7028 25.5874 20.7128 26.1144C20.7527 28.29 22.7279 30.0148 25.0897 30.0148H37.6693C40.0311 30.0148 42.0063 28.29 42.0462 26.1144C42.0652 25.0809 41.646 24.0813 40.8777 23.3283C40.1095 22.5752 39.0528 22.128 37.9323 22.0818C37.5255 22.3588 37.1938 22.7189 36.9631 23.1337C36.7324 23.5486 36.609 24.007 36.6025 24.4731L34.8095 24.4262C34.8179 23.7821 34.9726 23.1467 35.2638 22.5611C35.5549 21.9755 35.976 21.4525 36.4999 21.0261Z" fill="white"/>
</svg>
