<svg width="37" height="38" viewBox="0 0 37 38" fill="none" xmlns="http://www.w3.org/2000/svg">
<path d="M23.6875 15.5031L18.9375 23.7672C18.6875 23.7672 18.4375 23.7031 18.125 23.7031C16.375 23.7031 15 25.1125 15 26.9062C15 28.7 16.375 30.1094 18.125 30.1094C19.875 30.1094 21.25 28.7 21.25 26.9062C21.25 25.8812 20.75 24.9844 20.0625 24.4078L24.625 16.4641C25.875 17.9375 26.6875 19.7953 26.8125 21.8453C26.8125 22.1656 27.125 22.4219 27.4375 22.4219H29.5625C29.875 22.4219 30.0625 22.2297 30.1875 21.9734C30.5 20.8844 30.625 19.7312 30.625 18.5781C30.625 11.5312 25 5.76562 18.125 5.76562C11.25 5.76562 5.625 11.5312 5.625 18.5781C5.625 19.7312 5.75 20.8844 6.0625 21.9734C6.125 22.2297 6.375 22.4219 6.6875 22.4219H8.75C9.0625 22.4219 9.375 22.1656 9.375 21.8453C9.6875 17.1047 13.5 13.4531 18.125 13.4531C20.25 13.4531 22.1875 14.2219 23.6875 15.5031ZM18.125 28.8281C17.0625 28.8281 16.25 27.9953 16.25 26.9062C16.25 25.8172 17.0625 24.9844 18.125 24.9844C19.1875 24.9844 20 25.8172 20 26.9062C20 27.9953 19.1875 28.8281 18.125 28.8281ZM14.25 13.0047L12.4375 8.7125C12.4375 8.7125 12.4375 8.64844 12.375 8.64844C13.875 7.75156 15.625 7.175 17.4375 7.04688V12.1719C16.375 12.3 15.25 12.5562 14.25 13.0047ZM18.75 12.1719V7.04688C20.625 7.175 22.3125 7.6875 23.8125 8.64844C23.8125 8.64844 23.8125 8.7125 23.75 8.7125L21.9375 13.0047C21 12.5562 19.875 12.3 18.75 12.1719ZM29.125 21.1406H28.0625C27.875 19.6672 27.375 18.3219 26.6875 17.1047L28.9375 15.375C29.25 16.4 29.375 17.425 29.375 18.5781C29.375 19.475 29.25 20.3078 29.125 21.1406ZM28.5 14.1578C28.4375 14.1578 28.375 14.2219 28.375 14.2219L25.9375 16.0797C25.75 15.8234 25.5 15.5672 25.25 15.3109L26.125 13.7734C26.3125 13.4531 26.1875 13.0688 25.875 12.8766C25.5625 12.6844 25.1875 12.8125 25 13.1328L24.25 14.4141C23.875 14.0938 23.4375 13.8375 23.0625 13.5813L24.8125 9.41719C26.5 10.6344 27.75 12.2359 28.5 14.1578ZM8.1875 21.1406H7.125C6.9375 20.3078 6.875 19.475 6.875 18.5781C6.875 17.4891 7.0625 16.4 7.3125 15.375L9.5625 17.1047C8.875 18.3219 8.375 19.6672 8.1875 21.1406ZM10.3125 16.0797L7.875 14.2219C7.8125 14.1578 7.8125 14.1578 7.75 14.1578C8.5 12.2359 9.8125 10.6344 11.375 9.35313L13.125 13.5172C12 14.2219 11.0625 15.0547 10.3125 16.0797Z" fill="white"/>
<path d="M33.125 30.75H29.1875C32.375 27.7391 34.375 23.3828 34.375 18.5781C34.375 9.41719 27.0625 1.92188 18.125 1.92188C17.4375 1.92188 16.75 1.98594 16.0625 2.05C15.5625 0.832812 14.4375 0 13.125 0H12.5C11.125 0 10 1.15312 10 2.5625C10 3.075 10.1875 3.52344 10.5 3.84375C9.8125 4.22813 9.1875 4.6125 8.5625 5.125H0.625C0.25 5.125 0 5.38125 0 5.76562C0 6.15 0.25 6.40625 0.625 6.40625H7.0625C3.875 9.41719 1.875 13.7734 1.875 18.5781C1.875 27.7391 9.1875 35.2344 18.125 35.2344C21.6875 35.2344 25 34.0172 27.6875 32.0312H33.125C34.1875 32.0312 35 32.8641 35 33.9531C35 35.0422 34.1875 35.875 33.125 35.875H32.5C31.8125 35.875 31.25 35.2984 31.25 34.5938C31.25 34.2094 31.5 33.9531 31.875 33.9531C32.25 33.9531 32.5 33.6969 32.5 33.3125C32.5 32.9281 32.25 32.6719 31.875 32.6719C30.8125 32.6719 30 33.5047 30 34.5938C30 36.0031 31.125 37.1562 32.5 37.1562H33.125C34.875 37.1562 36.25 35.7469 36.25 33.9531C36.25 32.1594 34.875 30.75 33.125 30.75ZM11.875 3.20312C11.5 3.20312 11.25 2.94688 11.25 2.5625C11.25 1.85781 11.8125 1.28125 12.5 1.28125H13.125C13.8125 1.28125 14.4375 1.66562 14.75 2.30625C13.75 2.49844 12.8125 2.81875 11.875 3.20312ZM14.9375 3.52344C14.8125 4.42031 14.0625 5.125 13.125 5.125H10.875C12.125 4.42031 13.5 3.84375 14.9375 3.52344ZM18.125 33.9531C9.875 33.9531 3.125 27.0344 3.125 18.5781C3.125 13.6453 5.4375 9.225 9 6.40625H13.125C14.8125 6.40625 16.1875 5.06094 16.25 3.33125C16.875 3.26719 17.5 3.20312 18.125 3.20312C26.375 3.20312 33.125 10.1219 33.125 18.5781C33.125 23.5109 30.8125 27.9312 27.25 30.75H15.625C15.25 30.75 15 31.0062 15 31.3906C15 31.775 15.25 32.0312 15.625 32.0312H25.375C23.25 33.2484 20.75 33.9531 18.125 33.9531Z" fill="white"/>
</svg>
