<svg width="47" height="37" viewBox="0 0 47 37" fill="none" xmlns="http://www.w3.org/2000/svg">
<path d="M22.0312 15.0312C26.0871 15.0312 29.375 12.4429 29.375 9.25C29.375 6.0571 26.0871 3.46875 22.0312 3.46875C17.9754 3.46875 14.6875 6.0571 14.6875 9.25" stroke="white" stroke-width="2" stroke-linecap="round"/>
<path d="M7.34375 15.0312H22.0312" stroke="white" stroke-width="2" stroke-linecap="round"/>
<path d="M8.8125 24.2812H29.375" stroke="white" stroke-width="2" stroke-linecap="round"/>
<path d="M24.9688 27.75C24.9688 29.6657 26.9415 31.2188 29.375 31.2188C31.8085 31.2188 33.7812 29.6657 33.7812 27.75C33.7812 25.8343 31.8085 24.2812 29.375 24.2812" stroke="white" stroke-width="2" stroke-linecap="round"/>
<path d="M35.25 19.6562C39.3058 19.6562 42.5937 17.0679 42.5937 13.875C42.5937 10.6821 39.3058 8.09375 35.25 8.09375C34.8148 8.09375 34.3884 8.12355 33.974 8.1807" stroke="white" stroke-width="2" stroke-linecap="round"/>
<path d="M4.40625 19.6562H35.25" stroke="white" stroke-width="2" stroke-linecap="round"/>
</svg>
